<mxfile host="app.diagrams.net" modified="2022-11-10T08:29:41.432Z" agent="5.0 (Windows)" etag="M_0YlA6VXGfKbI-HaZiy" version="20.5.1" type="github">
  <diagram id="2ohZ-JlfehKxRjx7R69Y" name="Page-1">
    <mxGraphModel dx="1374" dy="753" grid="1" gridSize="10" guides="1" tooltips="1" connect="1" arrows="1" fold="1" page="1" pageScale="1" pageWidth="850" pageHeight="1100" math="0" shadow="0">
      <root>
        <mxCell id="0" />
        <mxCell id="1" parent="0" />
        <mxCell id="Kr5z9KKYAfnh3Ok926YY-1" value="Wetterstation" style="swimlane;fontStyle=0;childLayout=stackLayout;horizontal=1;startSize=26;fillColor=none;horizontalStack=0;resizeParent=1;resizeParentMax=0;resizeLast=0;collapsible=1;marginBottom=0;" parent="1" vertex="1">
          <mxGeometry x="92.5" y="150" width="285" height="96" as="geometry" />
        </mxCell>
        <mxCell id="Kr5z9KKYAfnh3Ok926YY-2" value="&lt;div style=&quot;--original-color: rgb(0, 0, 0); --original-background-color: rgba(0, 0, 0, 0);&quot; align=&quot;left&quot;&gt;+ addMesspunkt(Messpunkt messpunkt) : void&lt;div style=&quot;--original-color: rgb(0, 0, 0); --original-background-color: rgba(0, 0, 0, 0);&quot;&gt;+ sortiereNachDatum(): void&lt;/div&gt;+ getMaxDatumReihe(double minTemp): int&lt;/div&gt;&lt;div style=&quot;--original-color: rgb(0, 0, 0); --original-background-color: rgba(0, 0, 0, 0);&quot; align=&quot;left&quot;&gt;&lt;br style=&quot;--original-color: rgb(0, 0, 0); --original-background-color: rgba(0, 0, 0, 0);&quot;&gt;&lt;/div&gt;" style="text;html=1;align=left;verticalAlign=middle;resizable=0;points=[];autosize=1;strokeColor=none;fillColor=none;" parent="Kr5z9KKYAfnh3Ok926YY-1" vertex="1">
          <mxGeometry y="26" width="285" height="70" as="geometry" />
        </mxCell>
        <mxCell id="Kr5z9KKYAfnh3Ok926YY-7" value="WetterstationController" style="swimlane;fontStyle=0;childLayout=stackLayout;horizontal=1;startSize=20;fillColor=none;horizontalStack=0;resizeParent=1;resizeParentMax=0;resizeLast=0;collapsible=1;marginBottom=0;" parent="1" vertex="1">
          <mxGeometry x="100" y="340" width="270" height="50" as="geometry" />
        </mxCell>
        <mxCell id="Kr5z9KKYAfnh3Ok926YY-8" value="&lt;div style=&quot;--original-color: rgb(0, 0, 0); --original-background-color: rgba(0, 0, 0, 0);&quot;&gt;+&amp;nbsp;importCSVFile(String adresseVonFile): void&lt;/div&gt;" style="text;html=1;align=center;verticalAlign=middle;resizable=0;points=[];autosize=1;strokeColor=none;fillColor=none;" parent="Kr5z9KKYAfnh3Ok926YY-7" vertex="1">
          <mxGeometry y="20" width="270" height="30" as="geometry" />
        </mxCell>
        <mxCell id="Kr5z9KKYAfnh3Ok926YY-9" value="FileManager" style="swimlane;fontStyle=0;childLayout=stackLayout;horizontal=1;startSize=26;fillColor=none;horizontalStack=0;resizeParent=1;resizeParentMax=0;resizeLast=0;collapsible=1;marginBottom=0;" parent="1" vertex="1">
          <mxGeometry x="15" y="480" width="440" height="46" as="geometry" />
        </mxCell>
        <mxCell id="Kr5z9KKYAfnh3Ok926YY-10" value="&lt;u&gt;&amp;nbsp;+ leseCSVDateiScanner(String adresseVonFile ) : ArrayList&lt;/u&gt;" style="text;html=1;align=center;verticalAlign=middle;resizable=0;points=[];autosize=1;strokeColor=none;fillColor=none;" parent="Kr5z9KKYAfnh3Ok926YY-9" vertex="1">
          <mxGeometry y="26" width="440" height="20" as="geometry" />
        </mxCell>
        <mxCell id="Kr5z9KKYAfnh3Ok926YY-11" value="Use" style="endArrow=open;endSize=12;dashed=1;html=1;exitX=0.5;exitY=1;exitDx=0;exitDy=0;entryX=0.5;entryY=0;entryDx=0;entryDy=0;" parent="1" source="Kr5z9KKYAfnh3Ok926YY-7" target="Kr5z9KKYAfnh3Ok926YY-9" edge="1">
          <mxGeometry width="160" relative="1" as="geometry">
            <mxPoint x="315" y="264" as="sourcePoint" />
            <mxPoint x="475" y="264" as="targetPoint" />
          </mxGeometry>
        </mxCell>
        <mxCell id="Kr5z9KKYAfnh3Ok926YY-12" value="" style="endArrow=diamondThin;endFill=1;endSize=24;html=1;entryX=0.5;entryY=0;entryDx=0;entryDy=0;exitX=0.5;exitY=1;exitDx=0;exitDy=0;startArrow=openThin;startFill=0;" parent="1" source="Kr5z9KKYAfnh3Ok926YY-1" target="Kr5z9KKYAfnh3Ok926YY-7" edge="1">
          <mxGeometry width="160" relative="1" as="geometry">
            <mxPoint x="355" y="174" as="sourcePoint" />
            <mxPoint x="515" y="174" as="targetPoint" />
          </mxGeometry>
        </mxCell>
        <mxCell id="Kr5z9KKYAfnh3Ok926YY-13" value="1" style="edgeLabel;html=1;align=center;verticalAlign=middle;resizable=0;points=[];" parent="Kr5z9KKYAfnh3Ok926YY-12" vertex="1" connectable="0">
          <mxGeometry x="-0.4339" y="2" relative="1" as="geometry">
            <mxPoint x="5" y="-8" as="offset" />
          </mxGeometry>
        </mxCell>
        <mxCell id="Kr5z9KKYAfnh3Ok926YY-15" value="&lt;p style=&quot;margin: 0px ; margin-top: 4px ; text-align: center&quot;&gt;&lt;b&gt;Messpunkt&lt;/b&gt;&lt;/p&gt;&lt;hr size=&quot;1&quot;&gt;&lt;p style=&quot;margin: 0px ; margin-left: 4px&quot;&gt;- temperatur: double&lt;br&gt;- messdatum: &lt;font color=&quot;#ff8000&quot;&gt;GregorianCalendar&lt;/font&gt;&lt;/p&gt;&lt;p style=&quot;margin: 0px ; margin-left: 4px&quot;&gt;- luftfeuchtigkeit: &lt;font color=&quot;#ff8000&quot;&gt;double&lt;/font&gt;&lt;/p&gt;&lt;hr size=&quot;1&quot;&gt;&lt;p style=&quot;margin: 0px ; margin-left: 4px&quot;&gt;&lt;br&gt;&lt;/p&gt;" style="verticalAlign=top;align=left;overflow=fill;fontSize=12;fontFamily=Helvetica;html=1;" parent="1" vertex="1">
          <mxGeometry x="595" y="70" width="200" height="114" as="geometry" />
        </mxCell>
        <mxCell id="F_9stmqTEgurQ7FW_5Gi-7" style="edgeStyle=orthogonalEdgeStyle;rounded=0;orthogonalLoop=1;jettySize=auto;html=1;entryX=0.02;entryY=0.14;entryDx=0;entryDy=0;entryPerimeter=0;" parent="1" source="Kr5z9KKYAfnh3Ok926YY-14" target="Kr5z9KKYAfnh3Ok926YY-15" edge="1">
          <mxGeometry relative="1" as="geometry" />
        </mxCell>
        <mxCell id="Kr5z9KKYAfnh3Ok926YY-14" value="" style="shape=umlDestroy;whiteSpace=wrap;html=1;strokeWidth=3;" parent="1" vertex="1">
          <mxGeometry x="310" y="70" width="30" height="30" as="geometry" />
        </mxCell>
        <mxCell id="F_9stmqTEgurQ7FW_5Gi-2" value="" style="endArrow=none;html=1;edgeStyle=orthogonalEdgeStyle;exitX=0.5;exitY=0;exitDx=0;exitDy=0;entryX=0;entryY=0.5;entryDx=0;entryDy=0;endFill=0;" parent="1" source="Kr5z9KKYAfnh3Ok926YY-1" target="Kr5z9KKYAfnh3Ok926YY-14" edge="1">
          <mxGeometry relative="1" as="geometry">
            <mxPoint x="235" y="150" as="sourcePoint" />
            <mxPoint x="595" y="83" as="targetPoint" />
            <Array as="points" />
          </mxGeometry>
        </mxCell>
        <mxCell id="F_9stmqTEgurQ7FW_5Gi-3" value="1" style="edgeLabel;resizable=0;html=1;align=left;verticalAlign=bottom;" parent="F_9stmqTEgurQ7FW_5Gi-2" connectable="0" vertex="1">
          <mxGeometry x="-1" relative="1" as="geometry">
            <mxPoint x="10" y="8" as="offset" />
          </mxGeometry>
        </mxCell>
        <mxCell id="F_9stmqTEgurQ7FW_5Gi-5" value="erfasst" style="edgeLabel;html=1;align=center;verticalAlign=middle;resizable=0;points=[];" parent="F_9stmqTEgurQ7FW_5Gi-2" vertex="1" connectable="0">
          <mxGeometry x="-0.0797" relative="1" as="geometry">
            <mxPoint as="offset" />
          </mxGeometry>
        </mxCell>
      </root>
    </mxGraphModel>
  </diagram>
</mxfile>
